<?xml version="1.0" encoding="utf-8"?>
<!-- Generator: Adobe Illustrator 21.1.0, SVG Export Plug-In . SVG Version: 6.00 Build 0)  -->
<svg version="1.1" id="Layer_1" xmlns="http://www.w3.org/2000/svg" xmlns:xlink="http://www.w3.org/1999/xlink" x="0px" y="0px"
	 viewBox="0 0 403.6 95.8" style="enable-background:new 0 0 403.6 95.8;" xml:space="preserve">
<style type="text/css">
	.st0{fill:#06357A;}
	.st1{fill:#00929F;}
	.st2{fill:#F15D22;}
	.st3{fill:#FFD200;}
	.st4{fill-rule:evenodd;clip-rule:evenodd;fill:#06357A;}
	.st5{fill:#C1D82F;}
</style>
<g>
	<path class="st0" d="M4,19.5C0.8,29.5,8.7,41.8,24,53C12.6,43.1,7,32.8,9.9,24.2c5.9-18,46-22.7,89.6-9.3c12,3.7,23,6.9,32.6,12
		c-10.8-6.4-23.9-11.7-38.4-16.2C50-2.7,9.9,1.5,4,19.5"/>
	<path class="st1" d="M52.5,61.6c-16-9.1-25.2-20.8-22.7-30.4c1.8-6.7,9.1-11.5,19.6-13.3c-13.3,1.1-23.6,6.2-25.7,14
		C21.1,42,31.1,54.1,48.3,63.5L52.5,61.6"/>
	<path class="st2" d="M50.9,37.6c2.8-8.5,18.8-11.5,42.6-4c10.7,3.4,19.9,8.1,25.7,13.2c-5.8-4.3-13.8-8.2-23-11
		c-20.7-6.3-39.8-4.6-42.6,4c-1.3,4.1,1.3,9,6.7,13.7C53.2,48.1,49.4,42.3,50.9,37.6"/>
	<path class="st3" d="M102.9,54.5c-2.1,5.2-13.2,4-22.7,0.7c-4.9-1.7-9-4.1-11.6-6.5c2.6,2.1,7,3.8,10.5,4.9
		c9.5,3.1,19,2.1,20.4-0.8c2.7-5.6-6.1-9-10.9-10.4c3.9,0.8,5.7,1.7,8.4,2.9C102.7,48.6,104,52,102.9,54.5"/>
	<path class="st4" d="M34.9,71.1c0.8,0.7,1.9,1.1,3.6,1.1c2.2,0,4-0.9,4-2.1c0-2.2-5.9-5.4-15.8-5.4C12.9,64.7,5,70.7,5,78.1
		c0,7.1,6.8,13.7,22,13.7c9.8,0,15-3.2,15-4.7c0-0.7-1-1.2-2.2-1.2c-0.8,0-1.1,0.1-2.5,0.7c-1.1,0.4-3.9,1.5-8.1,1.5
		c-7.9,0-14.5-4-14.5-11.2c0-5.9,5.1-9.2,11.3-9.2C30.9,67.7,33,69.5,34.9,71.1"/>
	<path class="st4" d="M87.9,77.6c-0.5-6.9-7.9-12.9-21.3-12.9c-13.7,0-21.6,6-21.6,13.6c0,8.9,10,13.5,21.5,13.5
		C79.4,91.9,88.5,85.8,87.9,77.6 M78.4,77.7c0.1,2.5-0.5,5.4-2.6,7.5c-2.5,2.4-6.2,3.2-9.2,3.2c-2.6,0-9.6-0.7-11.5-6.7
		c-0.3-1-0.5-2.2-0.5-3.7c0-2,0.3-7.2,6.9-9.3c1.5-0.5,3.3-0.7,5.1-0.7c1.3,0,5.7,0.1,9,2.9C78,73,78.4,75.7,78.4,77.7z"/>
	<path class="st4" d="M102.5,66c-0.7-0.6-1-0.7-2.2-0.7h-5.1c-0.9,0-1.5,0.1-1.5,0.8v24.5c0,0.7,0.4,0.7,1.5,0.7h4.2
		c1.1,0,1.3-0.2,1.3-0.8V72.7L124,90.5c0.7,0.6,0.9,0.7,1.8,0.8h3.8c1,0,1.4-0.1,1.4-0.7V66c0-0.6-0.3-0.8-1.3-0.7h-4.2
		c-1.1,0-1.3,0.2-1.3,0.7v16.4L102.5,66"/>
	<path class="st4" d="M167.1,71.1c0.8,0.7,1.9,1.1,3.6,1.1c2.2,0,4-0.9,4-2.1c0-2.2-5.9-5.4-15.8-5.4c-13.9,0-21.7,6-21.7,13.4
		c0,7.1,6.8,13.7,21.9,13.7c9.8,0,15-3.2,15-4.7c0-0.7-1-1.2-2.2-1.2c-0.8,0-1.1,0.1-2.5,0.7c-1.1,0.4-3.9,1.5-8.1,1.5
		c-7.9,0-14.5-4-14.5-11.2c0-5.9,5.1-9.2,11.3-9.2C163.1,67.7,165.2,69.5,167.1,71.1"/>
	<path class="st4" d="M204.7,79.4c1.1,0,1.5-0.1,1.5-0.7v-1.8c0-0.6-0.4-0.7-1.4-0.7h-13.5v-7.6h16c1.1,0,1.6-0.1,1.5-0.8V66
		c0.1-0.7-0.6-0.7-1.5-0.7h-23.4c-1.2,0-1.6,0.2-1.6,1v24.1c0,0.8,0.5,0.8,1.6,0.8h23.4c1.1,0,1.4-0.1,1.5-0.5v-2.1
		c0-0.7-0.5-0.7-1.5-0.7h-16v-8.5H204.7"/>
	<path class="st4" d="M225.2,66c-0.7-0.6-1-0.7-2.2-0.7H218c-0.9,0-1.5,0.1-1.5,0.8v24.5c0,0.7,0.4,0.7,1.5,0.7h4.2
		c1.1,0,1.3-0.2,1.3-0.8V72.7l23.2,17.8c0.7,0.6,0.9,0.7,1.8,0.8h3.8c1,0,1.4-0.1,1.4-0.7V66c0-0.6-0.3-0.8-1.3-0.7h-4.2
		c-1.1,0-1.3,0.2-1.3,0.7v16.4L225.2,66"/>
	<path class="st4" d="M290.6,68.6c1.2,0,1.5-0.2,1.5-0.8V66c0-0.6-0.5-0.7-1.5-0.7H261c-1,0-1.5,0.1-1.5,0.8v1.7
		c0,0.6,0.3,0.8,1.5,0.8h10.2v21.8c0,0.7,0.4,0.8,1.6,0.9h6.1c1.1,0,1.4-0.3,1.4-0.9V68.6H290.6"/>
	<path class="st4" d="M297.8,90.5c0,0.7,0.5,0.8,1.5,0.8h5.9c1.3,0,1.5-0.2,1.5-0.9v-9.3c0-0.3,0-1,1.4-1c1.3,0,2.1,0.6,2.4,1
		l10.1,9.4c0.7,0.6,0.8,0.7,2.2,0.7h6.8c0.5,0,1.3,0,1.3-0.5c0-0.2-0.3-0.5-0.5-0.7l-12.6-10.8c4.7-0.8,10.5-2.9,10.5-7
		c0-2.1-1.4-4.1-4.4-5.4c-4-1.8-10-1.9-13.9-1.9c-4.4,0-9.6,0.3-11.1,0.6c-0.9,0.2-1.1,0.4-1.1,1.2V90.5 M306.7,68
		c0.7,0,1.6-0.1,3-0.1c2.6,0,9.6,0,9.6,5c0,3.4-4.2,4.7-8.2,5c-1.1,0.1-1.9,0.1-4.4,0V68z"/>
	<path class="st4" d="M345.9,66.1c0-0.7-0.4-0.8-1.4-0.8h-6.4c-1.2,0-1.4,0.3-1.4,0.8v24.4c0,0.7,0.5,0.8,1.5,0.8h6.3
		c0.9,0,1.5-0.1,1.5-0.8V66.1"/>
	<path class="st4" d="M377.9,90.5c0.7,0.7,0.9,0.7,2.2,0.7h6.5c0.5,0,1.3,0,1.3-0.5c0-0.2-0.2-0.4-0.4-0.6L374.1,77l11.3-10.6
		c0.2-0.2,0.4-0.4,0.4-0.6c0-0.5-0.8-0.5-1.2-0.5h-4.6c-1.2,0-1.3,0-2.1,0.7l-7.6,7.2l-7.4-7.2c-0.7-0.6-0.9-0.7-2.3-0.7h-6.1
		c-0.4,0-0.2,0-0.2,0.5c0,0.1,0.1,0.3,0.3,0.5L365.1,78l-12,12.2c-0.5,0.4-0.6,0.6-0.6,0.7c0,0.4,0.9,0.4,1.4,0.4h3.6
		c1.1,0,1.3-0.1,2-0.7l9.4-8.7L377.9,90.5"/>
	<path class="st5" d="M156.9,57.8c-8.3-13-25.7-26.8-50.8-35.2c-21.9-7.4-47-11.2-63.2-10.1c15.5,0.5,32.7,3,53.8,9.6
		c26.6,8.3,44.9,22.6,53.3,36c0,0,1.6-0.1,3.1-0.2C155.4,57.6,156.9,57.8,156.9,57.8"/>
	<path class="st0" d="M390.1,59.1h-2.1v-0.8h5.2v0.8H391v6.2h-0.9V59.1z"/>
	<path class="st0" d="M399.8,62.2c-0.1-1-0.1-2.1-0.1-3h0c-0.2,0.8-0.5,1.7-0.9,2.7l-1.2,3.4h-0.7l-1.1-3.3c-0.3-1-0.6-1.9-0.8-2.7
		h0c0,0.9-0.1,2-0.1,3.1l-0.2,3h-0.9l0.5-7h1.1l1.2,3.4c0.3,0.9,0.5,1.6,0.7,2.4h0c0.2-0.7,0.4-1.5,0.7-2.4l1.2-3.4h1.1l0.4,7h-0.9
		L399.8,62.2z"/>
</g>
</svg>
