<svg xmlns="http://www.w3.org/2000/svg" viewBox="0 0 64 64"><path d="M43 57H21a1 1 0 0 1-1-1 6 6 0 0 1 6-6H38a6 6 0 0 1 6 6A1 1 0 0 1 43 57zM22.13 55H41.87A4 4 0 0 0 38 52H26A4 4 0 0 0 22.13 55zM56.7 21.23l-5-4.94A1 1 0 0 0 51 16H34a1 1 0 0 0-1 1V27a1 1 0 0 0 1 1H51a1 1 0 0 0 .71-.3l5-5.06a1 1 0 0 0 .29-.71A1 1 0 0 0 56.7 21.23zM50.58 26H35V18H50.59l4 3.95z"/><polygon points="54.59 21.95 50.58 26 35 26 35 18 50.59 18 54.59 21.95" opacity=".5"/><path d="M30,26H13a1,1,0,0,0-.71.3l-5,5.06a1,1,0,0,0-.29.71,1,1,0,0,0,.3.7l5,4.94A1,1,0,0,0,13,38H30a1,1,0,0,0,1-1V27A1,1,0,0,0,30,26ZM29,36H13.41l-4-4,4-4H29Z"/><polygon points="29 28 29 36 13.41 36 9.41 32.05 13.42 28 29 28" opacity=".5"/><path d="M32,17a5,5,0,1,1,2.5-.67A5,5,0,0,1,32,17Zm0-8a3,3,0,0,0-3,3,3,3,0,0,0,6,0A3,3,0,0,0,32,9Z"/><path d="M34,52H30a1,1,0,0,1-1-1V15.46a1,1,0,0,1,.5-.87,1,1,0,0,1,1,0,3,3,0,0,0,3,0,1,1,0,0,1,1,0,1,1,0,0,1,.5.87V51A1,1,0,0,1,34,52Zm-3-2h2V16.9a5.18,5.18,0,0,1-2,0Z"/></svg>