<svg xmlns="http://www.w3.org/2000/svg" width="64" height="64" viewBox="0 0 16.933 16.933"><path style="line-height:normal;font-variant-ligatures:normal;font-variant-position:normal;font-variant-caps:normal;font-variant-numeric:normal;font-variant-alternates:normal;font-feature-settings:normal;text-indent:0;text-align:start;text-decoration-line:none;text-decoration-style:solid;text-decoration-color:#000;text-transform:none;text-orientation:mixed;shape-padding:0;isolation:auto;mix-blend-mode:normal" d="M 15.040346,0.56520722 C 13.881985,0.81300723 12.774625,1.8451372 12.238916,2.5691671 l -4.0039611,-0.48006 c -0.0858,-0.0103 -0.1644092,0.0202 -0.218594,0.0744 L 0.88958781,9.295307 c -0.482368,0.4774501 -0.478748,1.26115 0,1.73991 l 5.00753999,5.00989 c 0.478759,0.47875 1.2617431,0.47875 1.740491,0 l 3.2013522,-3.20762 -2.5569952,-0.60976 c -1.0260891,-0.24479 -0.673513,-1.791331 0.366916,-1.54302 l 3.3631602,0.80252 -0.787044,-3.30669 C 10.981913,7.1593472 12.521581,6.7776871 12.768095,7.8115771 l 0.595841,2.5000399 1.400455,-1.40039 c 0.0563,-0.0574 0.0835,-0.1372298 0.0739,-0.21703 l -0.407726,-3.40487 c -0.427818,0.30001 -0.861095,0.5271701 -1.289353,0.6588501 -0.604971,0.1860201 -1.344684,0.2082501 -1.857283,-0.30436 -0.277935,-0.2634499 -0.340206,-0.7767201 0,-1.1213499 0.268954,-0.26894 0.722953,-0.3382902 1.080569,-0.0403 0.0397,0.00201 0.153673,-0.00201 0.312136,-0.0512 0.311695,-0.0958 0.780724,-0.3541799 1.241802,-0.7482498 0.100042,-0.0855 0.195053,-0.1756402 0.287845,-0.2671702 l -0.0496,-0.41236 c -0.014,-0.12195 -0.110112,-0.21823 -0.232034,-0.2325399 l -1.05938,-0.1271202 c 0.701342,-0.80781 1.630709,-1.4303299 2.278451,-1.5605799 0.351016,-0.0706 0.533579,-0.003 0.626851,0.1049 0.0933,0.10809 0.146443,0.33427 0.047,0.70743 -0.198854,0.7463099 -0.965248,1.7733899 -1.877954,2.44681 -0.456358,0.3367098 -0.895106,0.5490099 -1.240252,0.62991 -0.345156,0.0809 -0.56149,0.0297 -0.667162,-0.076 -0.249324,-0.2363301 -0.610451,0.1247899 -0.374137,0.3741298 0.371607,0.3715901 0.961148,0.2706301 1.161191,0.2170401 0.444429,-0.1041799 0.934908,-0.35028 1.435077,-0.71932 1.000338,-0.7380701 1.823512,-1.7959199 2.074327,-2.7372299 0.125412,-0.47064 0.0934,-0.89708 -0.157613,-1.18799998 -0.214963,-0.26665177 -0.635495,-0.37671307 -1.1307,-0.27741 z M 7.5760627,5.729087 9.8261029,9.654327 c 0.1756821,0.3064506 -0.2837651,0.57054 -0.459418,0.2640506 L 7.1166548,5.9926271 C 6.9377507,5.680487 7.4007898,5.4233271 7.5760627,5.729087 Z m 2.4205729,0.4010001 c 0.4490384,0.12031 0.6993324,0.57491 0.5824004,1.0118 -0.116932,0.4368901 -0.565291,0.70368 -1.0097771,0.58444 C 9.1247809,7.6070971 8.8732158,7.1473672 8.9889279,6.7155672 9.1046297,6.2837571 9.5475877,6.0097671 9.9966356,6.1300871 Z M 9.5000169,6.852507 c -0.0413,0.1541002 0.0462,0.3215902 0.2056739,0.3643101 0.159503,0.0427 0.3211642,-0.0584 0.3622552,-0.2118799 0.0411,-0.1535001 -0.0478,-0.3202702 -0.2082521,-0.36327 -0.160473,-0.043 -0.3183861,0.0567 -0.359677,0.2108398 z m 2.2396901,1.20557 0.986007,4.14331 -4.1987843,-1.0025 c -0.3449058,-0.0824 -0.4665178,0.43164 -0.1229918,0.51365 l 4.4587191,1.06399 0.253224,1.05933 c -0.0108,-0.004 -0.496278,-0.098 -0.882135,0.28784 -0.385857,0.38582 -0.411338,1.03817 0.002,1.45102 0.413397,0.41286 1.063239,0.38676 1.450065,0 0.386827,-0.38674 0.392307,-0.99991 0.0579,-1.38695 l -0.303347,-1.27327 1.273333,0.30488 c 0.370887,0.31988 0.982768,0.34533 1.386505,-0.0584 0.403737,-0.40372 0.406158,-1.0468 0.002,-1.45104 -0.404097,-0.40423 -1.054709,-0.39839 -1.453166,0 -0.239074,0.23904 -0.335026,0.5667 -0.286805,0.87952 l -1.058379,-0.25063 -1.050079,-4.40374 C 12.170749,7.5869087 11.658945,7.7187062 11.739707,8.058077 Z M 7.3724587,7.919597 C 7.8164967,8.0385571 8.0697318,8.493987 7.9527998,8.9308771 7.8358677,9.3677671 7.3850688,9.633717 6.9450918,9.5158272 6.5051138,9.3979471 6.2482188,8.9394371 6.3647508,8.5045471 6.4812828,8.0696671 6.9284207,7.800617 7.3724587,7.919597 Z M 6.8758398,8.6420071 c -0.0441,0.16471 0.0516,0.3207599 0.206194,0.36225 0.154613,0.0415 0.3161961,-0.0484 0.359677,-0.2108401 0.0435,-0.1623898 -0.0475,-0.3197299 -0.2061941,-0.36225 -0.1586828,-0.0425 -0.315546,0.0461 -0.3596769,0.2108401 z M 2.3091739,10.071997 c 0.123502,0.123499 0.125712,0.329529 0,0.455259 -0.125713,0.125731 -0.328106,0.127191 -0.455278,0 -0.127173,-0.12719 -0.126403,-0.328859 0,-0.455259 0.126392,-0.1263894 0.331776,-0.1234894 0.455278,0 z m 13.4174541,2.01208 c 0.176793,0.17679 0.207294,0.48797 -10e-4,0.70278 -0.208324,0.21483 -0.530389,0.17139 -0.701772,0 -0.171393,-0.17138 -0.215634,-0.48819 -10e-4,-0.70278 0.217289,-0.217289 0.531315,-0.172457 0.703772,0 z m -8.8646831,2.54101 c 0.1290529,0.12904 0.1257128,0.32954 0,0.45525 -0.125722,0.12573 -0.328015,0.12727 -0.455278,0 -0.127272,-0.12725 -0.1203122,-0.33495 0,-0.45525 0.1203118,-0.12031 0.3262259,-0.12905 0.455278,0 z m 5.7474971,0.57552 c -0.194593,-0.19459 -0.192233,-0.51109 -5.29e-4,-0.70279 0.191703,-0.19169 0.503348,-0.19688 0.702312,0.002 0.196894,0.19689 0.191192,0.509528 0,0.70072 -0.191192,0.191192 -0.502594,0.196039 -0.701783,7e-5 z" color="#000" font-family="sans-serif" font-weight="400" overflow="visible"/></svg>