<svg xmlns="http://www.w3.org/2000/svg" enable-background="new 0 0 64 64" viewBox="0 0 64 64"><path fill="#7ca3c2" d="M40.23,4.11v55.77c0,2.16-1.75,3.91-3.9,3.91H3.91C1.75,63.79,0,62.04,0,59.88V4.11
				c0-2.15,1.75-3.9,3.91-3.9h32.42C38.48,0.21,40.23,1.96,40.23,4.11z"/><path fill="#f4f2f2" d="M37.36 7.52v45.73c0 .53-.44.97-.97.97H3.86c-.55 0-.98-.44-.98-.97V7.52c0-.54.43-.98.98-.98h32.53C36.92 6.54 37.36 6.98 37.36 7.52zM22.78 60.8h-5.33c-.59 0-1.06-.47-1.06-1.06v-1.48c0-.58.47-1.06 1.06-1.06h5.33c.59 0 1.06.47 1.06 1.06v1.48C23.84 60.33 23.37 60.8 22.78 60.8zM15.19 2.68c-.38 0-.69.31-.69.7 0 .39.32.7.71.7.39 0 .7-.31.7-.7C15.9 2.99 15.58 2.68 15.19 2.68zM24.36 2.68h-6.43c-.39 0-.7.31-.7.7 0 .39.31.7.7.7h6.43c.39 0 .7-.31.7-.7C25.06 2.99 24.74 2.68 24.36 2.68z"/><polygon fill="#e9e9e9" points="23.32 54.22 21.53 54.22 5.84 6.54 7.62 6.54"/><polygon fill="#e9e9e9" points="32.84 54.22 31.07 54.22 15.37 6.54 17.15 6.54"/><path fill="#f0bb73" d="M41.67,9.87c-12.33,0-22.33,7.74-22.33,17.29c0,4.51,2.23,8.62,5.89,11.7l-1.76,6.87l7.99-3.19
		c3.06,1.22,6.53,1.92,10.21,1.92C54,44.45,64,36.71,64,27.16C64,17.61,54,9.87,41.67,9.87z"/><polygon fill="#d82b5d" points="57.6 21.25 55.03 21.25 55.03 18.67 53.37 18.67 53.37 21.25 50.8 21.25 50.8 22.91 53.37 22.91 53.37 25.48 55.03 25.48 55.03 22.91 57.6 22.91"/><path fill="#95cebe" d="M51.84,37.99H31.23c0-2.5,0.68-3.85,2-4.74c1.19-0.8,2.82-1.37,3.53-1.56c0.51-0.14,0.91-0.48,0.91-0.48
						c0.05-0.03,0.09-0.06,0.14-0.1h7.46h0c0.03,0.02,0.07,0.05,0.1,0.07c0,0,0.49,0.34,0.94,0.5c0.68,0.24,2.34,0.76,3.54,1.57
						C51.17,34.14,51.84,35.49,51.84,37.99z"/><path fill="#fbdea2" d="M45.26,31.11l-3.73,2.24l-3.73-2.24c0.6-0.46,0.96-1.16,0.98-1.9c0.01-0.16,0-0.33-0.03-0.5l5.56-0.01
							c0,0,0,0,0,0c0,0.01,0,0.01,0,0.02c-0.03,0.17-0.04,0.34-0.03,0.51C44.3,29.97,44.66,30.67,45.26,31.11z"/><path fill="#f4d398" d="M44.32,28.7C44.32,28.71,44.32,28.71,44.32,28.7c0,0.01,0,0.02,0,0.02c-0.03,0.17-0.04,0.34-0.03,0.51
							c-0.32,0.29-0.71,0.55-1.18,0.74c-0.5,0.2-1.03,0.3-1.56,0.3c-0.53,0-1.06-0.1-1.55-0.29c-0.47-0.18-0.86-0.45-1.19-0.77
							c0.01-0.16,0-0.33-0.03-0.5L44.32,28.7z"/><path fill="#fbdea2" d="M46.45,25.61c-0.16,0.43-0.38,1.03-0.38,1.03c-0.13,0.23-0.51,0.34-0.78,0.25
							c-0.15,0.6-0.78,2.18-2.31,2.78c-0.93,0.36-1.95,0.36-2.88,0c-1.53-0.6-2.17-2.18-2.32-2.78c-0.26,0.09-0.65-0.1-0.78-0.34
							c0,0-0.21-0.51-0.38-0.94c-0.38-1.01,0.25-1.33,0.63-1.28c-0.16-0.78-0.49-1.97,0.13-2.56c0.85-0.81,0.51-1.76,0.51-1.76
							s0.79-0.87,1.86-0.41c1.36,0.6,3.81,0.5,4.87,0c0,0,1.28,1.05,1.14,4.74C46.2,24.26,46.83,24.6,46.45,25.61z"/><path fill="#365470" d="M45.76,24.34c0.14-3.69-1.69-3.88-1.69-3.88c-1.06,0.5-2.42,0.71-3.78,0.12c-1.07-0.46-1.8-0.4-1.8-0.4
			s0.03,1.13-0.82,1.94c-0.62,0.59-0.58,1.44-0.42,2.21c-2.74-6.23,0.27-5.79,0.27-5.79c1.27-3.88,9.04-2.23,9.17,1.58
			C46.77,22.35,46.14,23.64,45.76,24.34z"/></svg>