<?xml version="1.0" encoding="utf-8"?>
<!-- Generator: Adobe Illustrator 25.4.1, SVG Export Plug-In . SVG Version: 6.00 Build 0)  -->
<svg version="1.1" id="Layer_1" xmlns="http://www.w3.org/2000/svg" xmlns:xlink="http://www.w3.org/1999/xlink" x="0px" y="0px"
	 viewBox="0 0 32 32" style="enable-background:new 0 0 32 32;" xml:space="preserve">
<style type="text/css">
	.st0{fill:#075949;}
</style>
<path class="st0" d="M20.3,30.6c-0.4,0-0.8-0.1-1.1-0.4L5.6,16.5c-0.5-0.5-0.8-1.4-0.8-2.1l0.3-8.3c0-0.8,0.7-1.5,1.5-1.5l1.8-0.1
	c0.3,0,0.5,0.2,0.5,0.5c0,0.3-0.2,0.5-0.5,0.5L6.7,5.7C6.4,5.7,6.1,6,6.1,6.2l-0.3,8.3c0,0.4,0.2,1,0.5,1.3L20,29.5
	c0.2,0.2,0.5,0.2,0.7,0l9.2-9.2C30,20.2,30,20,30,19.9s-0.1-0.3-0.1-0.4L16.2,5.9c-0.3-0.3-0.9-0.6-1.3-0.5L11,5.5
	c-0.3,0-0.5-0.2-0.5-0.5c0-0.3,0.2-0.5,0.5-0.5l3.9-0.1c0.7,0,1.6,0.3,2.1,0.8l13.6,13.6c0.3,0.3,0.4,0.7,0.4,1.1s-0.2,0.8-0.4,1.1
	l-9.2,9.2C21.1,30.5,20.7,30.6,20.3,30.6z"/>
<path class="st0" d="M11,13.5c-1.7,0-3-1.3-3-3c0-1.1,0.6-2,1.5-2.6c0.2-0.1,0.5-0.1,0.7,0.2c0.1,0.2,0.1,0.5-0.2,0.7
	c-0.6,0.4-1,1-1,1.7c0,1.1,0.9,2,2,2s2-0.9,2-2c0-0.9-0.6-1.7-1.5-1.9c-0.3-0.1-0.4-0.3-0.4-0.6c0.1-0.3,0.3-0.4,0.6-0.4
	c1.4,0.3,2.3,1.5,2.3,2.9C14,12.1,12.7,13.5,11,13.5z M15.8,17.1c-0.3,0.3-0.6,0.5-0.9,0.5c-0.2,0-0.5,0-0.7-0.1
	c-0.1-0.1-0.3-0.2-0.4-0.3c-0.2-0.2-0.4-0.5-0.4-0.8c0-0.2,0-0.5,0.1-0.7c0.1-0.2,0.2-0.5,0.4-0.7l0.2,0.2c0.2,0.2,0.3,0.5,0.1,0.7
	c0,0,0,0.1-0.1,0.3c0,0.2,0,0.3,0.1,0.4c0.1,0.1,0.3,0.2,0.5,0.1c0.1,0,0.2-0.1,0.3-0.2c0.2-0.2,0.3-0.4,0.3-0.7c0-0.2,0-0.6,0-1
	c0-0.4,0-0.7,0.1-0.9c0.1-0.3,0.2-0.5,0.4-0.7c0.4-0.4,0.8-0.5,1.2-0.5c0.3,0,0.5,0.2,0.7,0.4c0.2,0.2,0.4,0.4,0.4,0.7
	c0,0.2,0,0.4,0,0.6c-0.1,0.2-0.2,0.4-0.3,0.6l-0.3-0.2c-0.2-0.2-0.3-0.4-0.2-0.6c0,0,0,0,0-0.2c0-0.1,0-0.2-0.1-0.3
	c-0.1-0.1-0.2-0.1-0.4-0.1c-0.1,0-0.2,0.1-0.4,0.2c-0.2,0.2-0.3,0.4-0.3,0.8c0,0.1,0,0.3,0,0.5c0,0.3,0,0.4,0,0.5
	c0,0.3,0,0.6-0.1,0.8c0,0.1-0.1,0.2-0.1,0.3C16,16.8,15.9,16.9,15.8,17.1z M17.3,18.8c-0.2-0.2-0.5-0.2-0.7,0l-0.3,0.2
	c-0.2,0.2-0.5,0.2-0.7,0c-0.2-0.2-0.1-0.4,0.1-0.6l3.9-2.8c0.2-0.2,0.6-0.1,0.8,0.1l0.1,0.1c0.2,0.2,0.2,0.5,0.1,0.8l-2.8,3.9
	c-0.2,0.2-0.4,0.3-0.6,0.1s-0.2-0.5,0-0.7l0.2-0.3C17.5,19.2,17.5,18.9,17.3,18.8z M19.2,17C19.3,16.8,19.3,16.7,19.2,17l-1.1,0.7
	c-0.2,0.2-0.3,0.4-0.2,0.5c0.1,0.1,0.4,0,0.5-0.2L19.2,17z M20.1,22.8c-0.2,0.2-0.5,0.1-0.7-0.1l-0.9-0.9c-0.2-0.2-0.2-0.5,0-0.7
	l3.3-3.3c0.2-0.2,0.5-0.2,0.7-0.1c0.2,0.2,0.1,0.5-0.1,0.7l-2.7,2.7c-0.2,0.2-0.2,0.5,0,0.7l0.3,0.3C20.2,22.3,20.3,22.6,20.1,22.8z
	 M20.7,24c-0.2-0.2-0.2-0.5,0-0.7l3.3-3.3c0.2-0.2,0.5-0.2,0.7,0l1,1c0.2,0.2,0.2,0.5,0,0.7c-0.2,0.2-0.5,0.1-0.7,0l-0.4-0.4
	c-0.2-0.2-0.5-0.2-0.7,0l-0.4,0.4c-0.2,0.2-0.2,0.5,0,0.7l0.1,0.1c0.2,0.2,0.2,0.5,0,0.7c-0.2,0.2-0.5,0.1-0.7,0l-0.1-0.1
	c-0.2-0.2-0.5-0.2-0.7,0L22,23.3c-0.2,0.2-0.2,0.5,0,0.7l0.4,0.4c0.2,0.2,0.2,0.5,0,0.7s-0.5,0.1-0.7,0L20.7,24z"/>
<path class="st0" d="M8.8,11.7c-0.2,0-0.4-0.1-0.5-0.4c-0.1-0.3,0.1-0.5,0.3-0.6c0.5-0.2,0.9-0.4,1.3-0.8c1.5-1.5,1.1-4.3-0.8-6.2
	c-1-1-2.1-1.6-3.3-1.7C4.7,1.9,3.7,2.2,3,2.9C1.5,4.4,1.8,7.2,3.8,9.2C3.8,9.2,3.9,9.3,4,9.4c0.2,0.2,0.2,0.5,0,0.7
	c-0.2,0.2-0.5,0.2-0.7,0C3.2,10,3.1,9.9,3,9.9C0.7,7.6,0.4,4.1,2.3,2.2C3.2,1.3,4.5,0.9,6,1c1.4,0.2,2.8,0.9,3.9,2
	c2.3,2.3,2.7,5.8,0.8,7.6c-0.5,0.5-1.1,0.8-1.7,1C8.9,11.7,8.9,11.7,8.8,11.7z"/>
</svg>
